Coordinates
version=1
nRows=11
nColumns=63
inDegrees=yes

Units are S.I. units (second, meters, Newtons, ...)
If the header above contains a line with 'inDegrees', this indicates whether rotational values are in degrees (yes) or radians (no).

endheader
time	pelvis_tilt	pelvis_list	pelvis_rotation	pelvis_tx	pelvis_ty	pelvis_tz	hip_flexion_r	hip_adduction_r	hip_rotation_r	knee_angle_r	knee_angle_r_beta	ankle_angle_r	subtalar_angle_r	mtp_angle_r	hip_flexion_l	hip_adduction_l	hip_rotation_l	knee_angle_l	knee_angle_l_beta	ankle_angle_l	subtalar_angle_l	mtp_angle_l	L5_S1_Flex_Ext	L5_S1_Lat_Bending	L5_S1_axial_rotation	L4_L5_Flex_Ext	L4_L5_Lat_Bending	L4_L5_axial_rotation	L3_L4_Flex_Ext	L3_L4_Lat_Bending	L3_L4_axial_rotation	L2_L3_Flex_Ext	L2_L3_Lat_Bending	L2_L3_axial_rotation	L1_L2_Flex_Ext	L1_L2_Lat_Bending	L1_L2_axial_rotation	L1_T12_Flex_Ext	L1_T12_Lat_Bending	L1_T12_axial_rotation	Abs_r3	Abs_r2	Abs_r1	Abs_t1	Abs_t2	neck_flexion	neck_bending	neck_rotation	arm_flex_r	arm_add_r	arm_rot_r	elbow_flex_r	pro_sup_r	wrist_flex_r	wrist_dev_r	arm_flex_l	arm_add_l	arm_rot_l	elbow_flex_l	pro_sup_l	wrist_flex_l	wrist_dev_l
0.813559	-4.122752	-1.913973	88.829880	0.130372	1.034124	0.086075	4.128190	-7.440952	-0.329127	13.893819	0.242493	25.925113	2.464575	0.000000	2.777329	5.838442	-7.154217	10.913131	0.190470	20.087751	7.166381	0.000000	0.219750	-0.916304	1.100112	0.408098	-1.218684	1.168869	0.361028	-2.227901	1.168869	0.251153	-2.227901	0.962598	0.204060	-1.868527	0.893841	0.125565	-1.419355	0.825084	1.569655	-10.365411	6.118494	0.000000	0.000000	0.889363	13.195479	2.622020	100.554973	-97.432548	111.572438	8.110819	26.245839	-21.417558	22.237323	-40.316806	-95.195585	-31.577930	4.917557	77.886820	-16.371975	13.787747
0.830508	-3.985549	-1.862234	88.857955	0.130249	1.034044	0.086208	3.886390	-7.247924	0.034007	13.554088	0.236563	25.695925	1.918591	0.000000	2.752618	5.665687	-7.583061	10.939910	0.190937	20.203029	7.798245	0.000000	0.211923	-0.893659	1.065049	0.393562	-1.188567	1.131615	0.348168	-2.172843	1.131615	0.242207	-2.172843	0.931918	0.196792	-1.822350	0.865352	0.121093	-1.384278	0.798787	1.513745	-10.109251	5.923484	0.000000	0.000000	0.881625	12.845675	2.642571	100.227592	-97.228049	110.367192	7.850944	28.703415	-20.264171	21.940392	-37.683069	-95.004217	-27.520315	4.916488	77.360360	-16.503934	13.538311
0.847458	-3.862629	-1.786380	88.940396	0.130109	1.034013	0.086374	3.607931	-7.074840	0.311857	13.206723	0.230501	25.482367	1.426807	0.000000	2.711746	5.508704	-7.907333	10.986141	0.191744	20.303405	8.355492	0.000000	0.199940	-0.872977	1.004752	0.371309	-1.161059	1.067549	0.328482	-2.122555	1.067549	0.228512	-2.122555	0.879158	0.185665	-1.780174	0.816361	0.114246	-1.352241	0.753564	1.428153	-9.875285	5.588131	0.000000	0.000000	0.852881	12.492035	2.748402	100.463515	-96.882017	109.991251	7.584623	30.527531	-19.273693	21.568001	-33.747040	-94.792391	-22.097411	4.937556	76.905913	-16.479176	13.403952
0.864407	-3.748343	-1.703173	89.072497	0.129948	1.034011	0.086549	3.317902	-6.908180	0.567487	12.862065	0.224485	25.268520	0.901838	0.000000	2.673613	5.360402	-8.136979	11.057540	0.192990	20.392323	8.848838	0.000000	0.186500	-0.853307	0.921880	0.346349	-1.134898	0.979498	0.306401	-2.074731	0.979498	0.213151	-2.074731	0.806645	0.173184	-1.740064	0.749028	0.106566	-1.321773	0.691410	1.332149	-9.652781	5.127222	0.000000	0.000000	0.810552	12.127849	2.968137	101.447696	-96.404763	110.125597	7.304242	32.566079	-18.377221	21.222477	-28.470120	-94.540645	-15.417278	4.977045	76.473880	-16.371274	13.281053
0.881356	-3.658184	-1.621495	89.261754	0.129809	1.034038	0.086713	3.026094	-6.761051	0.798763	12.526052	0.218621	25.066849	0.340922	0.000000	2.641259	5.232957	-8.277666	11.143902	0.194498	20.449593	9.295273	0.000000	0.172183	-0.838482	0.822108	0.319760	-1.115181	0.873490	0.282879	-2.038686	0.873490	0.196787	-2.038686	0.719345	0.159889	-1.709833	0.667963	0.098385	-1.298809	0.616581	1.229883	-9.485078	4.572318	0.000000	0.000000	0.779262	11.811103	3.226895	103.288479	-95.871316	110.682595	7.043475	34.698696	-17.609331	20.822002	-22.279164	-94.316992	-7.760794	5.117668	76.026044	-16.124243	13.389148
0.898305	-3.596744	-1.543182	89.509072	0.129672	1.034100	0.086850	2.735487	-6.645405	0.939880	12.203522	0.212992	24.897168	-0.158458	0.000000	2.613455	5.136392	-8.292553	11.237486	0.196131	20.472842	9.645063	0.000000	0.157245	-0.829047	0.708246	0.292020	-1.102633	0.752511	0.258338	-2.015745	0.752511	0.179716	-2.015745	0.619715	0.146018	-1.690593	0.575450	0.089850	-1.284194	0.531184	1.123187	-9.378346	3.939050	0.000000	0.000000	0.750329	11.554258	3.507290	105.990473	-95.295819	111.561430	6.807138	36.887087	-17.013435	20.368936	-15.322098	-94.130565	0.843965	5.366466	75.403161	-15.753791	13.692433
0.915254	-3.518632	-1.480471	89.798350	0.129434	1.034165	0.086969	2.466638	-6.523696	0.965373	11.900130	0.207696	24.759100	-0.545777	0.000000	2.605878	5.027719	-8.217493	11.342821	0.197970	20.508313	9.934840	0.000000	0.143183	-0.816858	0.611559	0.265906	-1.086421	0.649781	0.235236	-1.986108	0.649781	0.163644	-1.986108	0.535114	0.132960	-1.665736	0.496891	0.081815	-1.265312	0.458669	1.022743	-9.240457	3.401305	0.000000	0.000000	0.741170	11.280340	3.746418	107.900676	-94.849051	111.857783	6.638201	38.536494	-16.558032	19.952798	-10.488595	-94.049913	7.111038	5.588316	74.897470	-15.325876	14.070562
0.932203	-3.443970	-1.424996	90.137704	0.129152	1.034238	0.087087	2.214178	-6.416276	0.844572	11.628512	0.202956	24.669158	-0.785765	0.000000	2.616352	4.926486	-8.026642	11.468119	0.200156	20.552876	10.115721	0.000000	0.128514	-0.805835	0.514987	0.238663	-1.071760	0.547173	0.211135	-1.959307	0.547173	0.146879	-1.959307	0.450613	0.119338	-1.643258	0.418427	0.073433	-1.248238	0.386240	0.917962	-9.115764	2.864201	0.000000	0.000000	0.761311	11.023232	3.944392	109.945609	-94.447873	111.979795	6.535156	39.905967	-16.276170	19.614457	-6.116223	-94.015662	12.798012	5.858241	74.394716	-14.887118	14.491595
0.949153	-3.386760	-1.390497	90.539032	0.128837	1.034302	0.087200	1.986539	-6.333170	0.607719	11.385724	0.198718	24.617682	-0.948651	0.000000	2.661121	4.845767	-7.727076	11.614948	0.202719	20.600106	10.195904	0.000000	0.115372	-0.798818	0.421112	0.214258	-1.062428	0.447432	0.189545	-1.942245	0.447432	0.131859	-1.942245	0.368473	0.107135	-1.628949	0.342154	0.065924	-1.237369	0.315834	0.824094	-9.036386	2.342101	0.000000	0.000000	0.817228	10.818125	4.072468	112.002580	-94.138371	112.095481	6.495841	40.988869	-16.230978	19.365262	-2.637808	-94.083490	17.766041	6.189748	73.910890	-14.381894	15.081007
0.966102	-3.336561	-1.366758	90.996464	0.128427	1.034361	0.087308	1.759202	-6.268095	0.244899	11.142655	0.194476	24.587037	-0.997186	0.000000	2.717053	4.783063	-7.302826	11.758363	0.205222	20.647990	10.157819	0.000000	0.102757	-0.793102	0.329204	0.190831	-1.054826	0.349779	0.168820	-1.928349	0.349779	0.117441	-1.928349	0.288053	0.095420	-1.617294	0.267478	0.058716	-1.228516	0.246903	0.733985	-8.971732	1.830932	0.000000	0.000000	0.884390	10.654040	4.178387	114.098261	-93.916656	112.094179	6.531417	41.614210	-16.431390	19.111359	-0.156830	-94.226150	21.830845	6.586362	73.540526	-13.844495	15.843164
0.983051	-3.295312	-1.360910	91.488850	0.128032	1.034397	0.087452	1.559024	-6.205467	-0.117334	10.924802	0.190674	24.550572	-1.108236	0.000000	2.806017	4.718252	-6.908795	11.926612	0.208159	20.745512	10.223584	0.000000	0.091529	-0.790396	0.237955	0.169978	-1.051227	0.252827	0.150372	-1.921769	0.252827	0.104608	-1.921769	0.208211	0.084994	-1.611776	0.193339	0.052299	-1.224324	0.178466	0.653780	-8.941120	1.323436	0.000000	0.000000	0.972608	10.543769	4.241057	116.454853	-93.729035	112.574622	6.513320	42.036579	-16.520133	18.909172	1.753593	-94.418053	24.844097	7.034698	73.672361	-13.350600	16.580823
